# xmcd
#
# Track frame offsets: 
#        150
#        25750
#        46317
#        63275
#        76615
#        102585
#        118245
#        141467
#        168859
#        191345
#
# Disc length: 2828 seconds
#
# Revision: 0
# Processed by: cddbd v1.5.2PL0 Copyright (c) Steve Scherf et al.
# Submitted via: ExactAudioCopyFreeDBPlugin 1.0
#
DISCID=7f0b0a0a
DTITLE=David Hanselmann and The Dudes - Sunday Night Live
DYEAR=1996
DGENRE=Soul
TTITLE0=What's going On
TTITLE1=You Really Got A Hold On Me
TTITLE2=Drift Away
TTITLE3=Under The Boardwalk
TTITLE4=When A Man Loves A Woman
TTITLE5=Knock On Wood
TTITLE6=Let The Music Carry On
TTITLE7=Everytime You Go Away
TTITLE8=Stand By Me
TTITLE9=How Sweet It Is To Be Loved By You
EXTD=
EXTT0=
EXTT1=
EXTT2=
EXTT3=
EXTT4=
EXTT5=
EXTT6=
EXTT7=
EXTT8=
EXTT9=
PLAYORDER=
